<mxfile host="app.diagrams.net" agent="Mozilla/5.0 (Macintosh; Intel Mac OS X 10_15_7) AppleWebKit/537.36 (KHTML, like Gecko) Chrome/136.0.0.0 Safari/537.36" version="26.2.10" pages="6">
  <diagram name="Page-1" id="zqMLiQcfng_mtxaIydeu">
    <mxGraphModel dx="596" dy="349" grid="1" gridSize="10" guides="1" tooltips="1" connect="1" arrows="1" fold="1" page="1" pageScale="1" pageWidth="827" pageHeight="1169" math="0" shadow="0">
      <root>
        <mxCell id="0" />
        <mxCell id="1" parent="0" />
        <mxCell id="HPVyvTbn9cwMBZUudgKs-3" value="" style="edgeStyle=orthogonalEdgeStyle;rounded=0;orthogonalLoop=1;jettySize=auto;html=1;" edge="1" parent="1" source="HPVyvTbn9cwMBZUudgKs-1" target="HPVyvTbn9cwMBZUudgKs-2">
          <mxGeometry relative="1" as="geometry" />
        </mxCell>
        <mxCell id="HPVyvTbn9cwMBZUudgKs-1" value="ng server" style="text;html=1;align=center;verticalAlign=middle;resizable=0;points=[];autosize=1;strokeColor=none;fillColor=none;" vertex="1" parent="1">
          <mxGeometry x="120" y="125" width="70" height="30" as="geometry" />
        </mxCell>
        <mxCell id="HPVyvTbn9cwMBZUudgKs-5" value="" style="edgeStyle=orthogonalEdgeStyle;rounded=0;orthogonalLoop=1;jettySize=auto;html=1;" edge="1" parent="1" source="HPVyvTbn9cwMBZUudgKs-2" target="HPVyvTbn9cwMBZUudgKs-4">
          <mxGeometry relative="1" as="geometry" />
        </mxCell>
        <mxCell id="HPVyvTbn9cwMBZUudgKs-2" value="starts webpack dev server" style="text;html=1;align=center;verticalAlign=middle;resizable=0;points=[];autosize=1;strokeColor=none;fillColor=none;" vertex="1" parent="1">
          <mxGeometry x="225" y="125" width="160" height="30" as="geometry" />
        </mxCell>
        <mxCell id="HPVyvTbn9cwMBZUudgKs-7" value="" style="edgeStyle=orthogonalEdgeStyle;rounded=0;orthogonalLoop=1;jettySize=auto;html=1;" edge="1" parent="1" source="HPVyvTbn9cwMBZUudgKs-4" target="HPVyvTbn9cwMBZUudgKs-6">
          <mxGeometry relative="1" as="geometry" />
        </mxCell>
        <mxCell id="HPVyvTbn9cwMBZUudgKs-4" value="serves index.html&lt;div&gt;&amp;lt;app-root&amp;gt;&lt;/div&gt;" style="text;html=1;align=center;verticalAlign=middle;resizable=0;points=[];autosize=1;strokeColor=none;fillColor=none;" vertex="1" parent="1">
          <mxGeometry x="485" y="120" width="120" height="40" as="geometry" />
        </mxCell>
        <mxCell id="HPVyvTbn9cwMBZUudgKs-9" value="" style="edgeStyle=orthogonalEdgeStyle;rounded=0;orthogonalLoop=1;jettySize=auto;html=1;" edge="1" parent="1" source="HPVyvTbn9cwMBZUudgKs-6" target="HPVyvTbn9cwMBZUudgKs-8">
          <mxGeometry relative="1" as="geometry" />
        </mxCell>
        <mxCell id="HPVyvTbn9cwMBZUudgKs-6" value="loads main.ts" style="text;html=1;align=center;verticalAlign=middle;resizable=0;points=[];autosize=1;strokeColor=none;fillColor=none;" vertex="1" parent="1">
          <mxGeometry x="500" y="245" width="90" height="30" as="geometry" />
        </mxCell>
        <mxCell id="HPVyvTbn9cwMBZUudgKs-11" value="" style="edgeStyle=orthogonalEdgeStyle;rounded=0;orthogonalLoop=1;jettySize=auto;html=1;" edge="1" parent="1" source="HPVyvTbn9cwMBZUudgKs-8" target="HPVyvTbn9cwMBZUudgKs-10">
          <mxGeometry relative="1" as="geometry" />
        </mxCell>
        <mxCell id="HPVyvTbn9cwMBZUudgKs-8" value="bootstrap Root Module&lt;div&gt;AppModule&lt;/div&gt;" style="text;html=1;align=center;verticalAlign=middle;resizable=0;points=[];autosize=1;strokeColor=none;fillColor=none;" vertex="1" parent="1">
          <mxGeometry x="305" y="240" width="140" height="40" as="geometry" />
        </mxCell>
        <mxCell id="HPVyvTbn9cwMBZUudgKs-13" value="" style="edgeStyle=orthogonalEdgeStyle;rounded=0;orthogonalLoop=1;jettySize=auto;html=1;" edge="1" parent="1" source="HPVyvTbn9cwMBZUudgKs-10" target="HPVyvTbn9cwMBZUudgKs-12">
          <mxGeometry relative="1" as="geometry" />
        </mxCell>
        <mxCell id="HPVyvTbn9cwMBZUudgKs-10" value="bootstraps Root Component&lt;div&gt;AppComponent&lt;/div&gt;&lt;div&gt;&amp;lt;app-root&amp;gt; defined here&lt;/div&gt;" style="text;html=1;align=center;verticalAlign=middle;resizable=0;points=[];autosize=1;strokeColor=none;fillColor=none;" vertex="1" parent="1">
          <mxGeometry x="70" y="230" width="170" height="60" as="geometry" />
        </mxCell>
        <mxCell id="HPVyvTbn9cwMBZUudgKs-12" value="AppComponent Template" style="text;html=1;align=center;verticalAlign=middle;resizable=0;points=[];autosize=1;strokeColor=none;fillColor=none;" vertex="1" parent="1">
          <mxGeometry x="75" y="365" width="160" height="30" as="geometry" />
        </mxCell>
        <mxCell id="HPVyvTbn9cwMBZUudgKs-14" value="Angular App Bootstrap Process" style="text;strokeColor=none;fillColor=none;html=1;fontSize=24;fontStyle=1;verticalAlign=middle;align=center;" vertex="1" parent="1">
          <mxGeometry x="364" y="60" width="100" height="40" as="geometry" />
        </mxCell>
      </root>
    </mxGraphModel>
  </diagram>
  <diagram id="OKqLqqqcuYN7kBoeTXW-" name="Page-2">
    <mxGraphModel dx="642" dy="376" grid="1" gridSize="10" guides="1" tooltips="1" connect="1" arrows="1" fold="1" page="1" pageScale="1" pageWidth="827" pageHeight="1169" math="0" shadow="0">
      <root>
        <mxCell id="0" />
        <mxCell id="1" parent="0" />
        <mxCell id="GE0noA_h-o4a8-g4u0ji-1" value="Binding Concepts" style="text;strokeColor=none;fillColor=none;html=1;fontSize=24;fontStyle=1;verticalAlign=middle;align=center;" vertex="1" parent="1">
          <mxGeometry x="364" y="60" width="100" height="40" as="geometry" />
        </mxCell>
        <mxCell id="GE0noA_h-o4a8-g4u0ji-5" style="edgeStyle=orthogonalEdgeStyle;rounded=0;orthogonalLoop=1;jettySize=auto;html=1;exitX=0.5;exitY=0;exitDx=0;exitDy=0;entryX=0.5;entryY=0;entryDx=0;entryDy=0;" edge="1" parent="1" source="GE0noA_h-o4a8-g4u0ji-2" target="GE0noA_h-o4a8-g4u0ji-3">
          <mxGeometry relative="1" as="geometry">
            <mxPoint x="230.0000000000001" y="180" as="targetPoint" />
            <Array as="points">
              <mxPoint x="210" y="140" />
              <mxPoint x="580" y="140" />
            </Array>
          </mxGeometry>
        </mxCell>
        <mxCell id="GE0noA_h-o4a8-g4u0ji-2" value="Component Class" style="rounded=0;whiteSpace=wrap;html=1;" vertex="1" parent="1">
          <mxGeometry x="150" y="210" width="120" height="60" as="geometry" />
        </mxCell>
        <mxCell id="GE0noA_h-o4a8-g4u0ji-8" style="edgeStyle=orthogonalEdgeStyle;rounded=0;orthogonalLoop=1;jettySize=auto;html=1;exitX=0.5;exitY=1;exitDx=0;exitDy=0;" edge="1" parent="1" source="GE0noA_h-o4a8-g4u0ji-3">
          <mxGeometry relative="1" as="geometry">
            <mxPoint x="210.0000000000001" y="270.1538461538461" as="targetPoint" />
            <Array as="points">
              <mxPoint x="580" y="330" />
              <mxPoint x="211" y="330" />
              <mxPoint x="211" y="270" />
            </Array>
          </mxGeometry>
        </mxCell>
        <mxCell id="GE0noA_h-o4a8-g4u0ji-3" value="Component Template" style="rounded=0;whiteSpace=wrap;html=1;" vertex="1" parent="1">
          <mxGeometry x="520" y="210" width="120" height="60" as="geometry" />
        </mxCell>
        <mxCell id="GE0noA_h-o4a8-g4u0ji-4" value="model" style="text;html=1;align=center;verticalAlign=middle;resizable=0;points=[];autosize=1;strokeColor=none;fillColor=none;" vertex="1" parent="1">
          <mxGeometry x="80" y="218" width="60" height="30" as="geometry" />
        </mxCell>
        <mxCell id="GE0noA_h-o4a8-g4u0ji-6" value="[ Property Binding ]" style="text;html=1;align=center;verticalAlign=middle;resizable=0;points=[];autosize=1;strokeColor=none;fillColor=none;" vertex="1" parent="1">
          <mxGeometry x="284" y="150" width="130" height="30" as="geometry" />
        </mxCell>
        <mxCell id="GE0noA_h-o4a8-g4u0ji-7" value="{{ Interpolation }}" style="text;html=1;align=center;verticalAlign=middle;resizable=0;points=[];autosize=1;strokeColor=none;fillColor=none;" vertex="1" parent="1">
          <mxGeometry x="400" y="150" width="110" height="30" as="geometry" />
        </mxCell>
        <mxCell id="GE0noA_h-o4a8-g4u0ji-9" value="&amp;nbsp;( Event Binding )" style="text;html=1;align=center;verticalAlign=middle;resizable=0;points=[];autosize=1;strokeColor=none;fillColor=none;" vertex="1" parent="1">
          <mxGeometry x="330" y="298" width="120" height="30" as="geometry" />
        </mxCell>
        <mxCell id="GE0noA_h-o4a8-g4u0ji-10" value="2 way data binding&lt;div&gt;&lt;br&gt;&lt;/div&gt;&lt;div&gt;- Banana in the box&lt;/div&gt;&lt;div&gt;&lt;br&gt;&lt;/div&gt;&lt;div&gt;[ ( ngModel ) ] = &quot;user.firstName&quot;&lt;/div&gt;" style="text;html=1;align=center;verticalAlign=middle;resizable=0;points=[];autosize=1;strokeColor=none;fillColor=none;" vertex="1" parent="1">
          <mxGeometry x="210" y="328" width="200" height="90" as="geometry" />
        </mxCell>
      </root>
    </mxGraphModel>
  </diagram>
  <diagram id="VM5VnXKv4cxp2lcwAK9q" name="Page-3">
    <mxGraphModel dx="645" dy="376" grid="1" gridSize="10" guides="1" tooltips="1" connect="1" arrows="1" fold="1" page="1" pageScale="1" pageWidth="827" pageHeight="1169" math="0" shadow="0">
      <root>
        <mxCell id="0" />
        <mxCell id="1" parent="0" />
        <mxCell id="-7O126W8arNfkLSuT_qF-1" value="Nested Component Communication" style="text;strokeColor=none;fillColor=none;html=1;fontSize=24;fontStyle=1;verticalAlign=middle;align=center;" vertex="1" parent="1">
          <mxGeometry x="360" y="40" width="100" height="40" as="geometry" />
        </mxCell>
        <mxCell id="-7O126W8arNfkLSuT_qF-5" style="edgeStyle=orthogonalEdgeStyle;rounded=0;orthogonalLoop=1;jettySize=auto;html=1;exitX=0.25;exitY=1;exitDx=0;exitDy=0;entryX=0.25;entryY=0;entryDx=0;entryDy=0;" edge="1" parent="1" source="-7O126W8arNfkLSuT_qF-2" target="-7O126W8arNfkLSuT_qF-3">
          <mxGeometry relative="1" as="geometry" />
        </mxCell>
        <mxCell id="-7O126W8arNfkLSuT_qF-2" value="Parent" style="rounded=0;whiteSpace=wrap;html=1;" vertex="1" parent="1">
          <mxGeometry x="350" y="180" width="120" height="60" as="geometry" />
        </mxCell>
        <mxCell id="-7O126W8arNfkLSuT_qF-8" style="edgeStyle=orthogonalEdgeStyle;rounded=0;orthogonalLoop=1;jettySize=auto;html=1;exitX=0.75;exitY=0;exitDx=0;exitDy=0;entryX=0.75;entryY=1;entryDx=0;entryDy=0;" edge="1" parent="1" source="-7O126W8arNfkLSuT_qF-3" target="-7O126W8arNfkLSuT_qF-2">
          <mxGeometry relative="1" as="geometry" />
        </mxCell>
        <mxCell id="-7O126W8arNfkLSuT_qF-3" value="Child" style="rounded=0;whiteSpace=wrap;html=1;" vertex="1" parent="1">
          <mxGeometry x="350" y="460" width="120" height="60" as="geometry" />
        </mxCell>
        <mxCell id="-7O126W8arNfkLSuT_qF-6" value="[ Property Binding ]" style="text;html=1;align=center;verticalAlign=middle;resizable=0;points=[];autosize=1;strokeColor=none;fillColor=none;" vertex="1" parent="1">
          <mxGeometry x="215" y="210" width="130" height="30" as="geometry" />
        </mxCell>
        <mxCell id="-7O126W8arNfkLSuT_qF-7" value="@Input() Decorator" style="text;html=1;align=center;verticalAlign=middle;resizable=0;points=[];autosize=1;strokeColor=none;fillColor=none;" vertex="1" parent="1">
          <mxGeometry x="205" y="458" width="130" height="30" as="geometry" />
        </mxCell>
        <mxCell id="-7O126W8arNfkLSuT_qF-9" value="EventEmitter Class&lt;div&gt;@Output()&lt;/div&gt;" style="text;html=1;align=center;verticalAlign=middle;resizable=0;points=[];autosize=1;strokeColor=none;fillColor=none;" vertex="1" parent="1">
          <mxGeometry x="470" y="453" width="130" height="40" as="geometry" />
        </mxCell>
        <mxCell id="-7O126W8arNfkLSuT_qF-10" value="( Event Binding )" style="text;html=1;align=center;verticalAlign=middle;resizable=0;points=[];autosize=1;strokeColor=none;fillColor=none;" vertex="1" parent="1">
          <mxGeometry x="465" y="210" width="110" height="30" as="geometry" />
        </mxCell>
      </root>
    </mxGraphModel>
  </diagram>
  <diagram id="miqILbqppP8Tguwxxinv" name="Page-4">
    <mxGraphModel dx="839" dy="489" grid="1" gridSize="10" guides="1" tooltips="1" connect="1" arrows="1" fold="1" page="1" pageScale="1" pageWidth="827" pageHeight="1169" math="0" shadow="0">
      <root>
        <mxCell id="0" />
        <mxCell id="1" parent="0" />
        <mxCell id="FmULgSTfwwQh52zvQRLw-3" value="" style="edgeStyle=orthogonalEdgeStyle;rounded=0;orthogonalLoop=1;jettySize=auto;html=1;" edge="1" parent="1" source="FmULgSTfwwQh52zvQRLw-1" target="FmULgSTfwwQh52zvQRLw-2">
          <mxGeometry relative="1" as="geometry" />
        </mxCell>
        <mxCell id="FmULgSTfwwQh52zvQRLw-8" style="edgeStyle=orthogonalEdgeStyle;rounded=0;orthogonalLoop=1;jettySize=auto;html=1;exitX=0.5;exitY=1;exitDx=0;exitDy=0;" edge="1" parent="1" source="FmULgSTfwwQh52zvQRLw-1" target="FmULgSTfwwQh52zvQRLw-4">
          <mxGeometry relative="1" as="geometry" />
        </mxCell>
        <mxCell id="FmULgSTfwwQh52zvQRLw-11" style="edgeStyle=orthogonalEdgeStyle;rounded=0;orthogonalLoop=1;jettySize=auto;html=1;exitX=0.5;exitY=1;exitDx=0;exitDy=0;" edge="1" parent="1" source="FmULgSTfwwQh52zvQRLw-1" target="FmULgSTfwwQh52zvQRLw-7">
          <mxGeometry relative="1" as="geometry" />
        </mxCell>
        <mxCell id="FmULgSTfwwQh52zvQRLw-16" value="" style="edgeStyle=orthogonalEdgeStyle;rounded=0;orthogonalLoop=1;jettySize=auto;html=1;" edge="1" parent="1" source="FmULgSTfwwQh52zvQRLw-1" target="FmULgSTfwwQh52zvQRLw-15">
          <mxGeometry relative="1" as="geometry" />
        </mxCell>
        <mxCell id="FmULgSTfwwQh52zvQRLw-1" value="Complete UI&lt;div&gt;Actual DOM&lt;/div&gt;" style="whiteSpace=wrap;html=1;aspect=fixed;" vertex="1" parent="1">
          <mxGeometry x="370" y="70" width="80" height="80" as="geometry" />
        </mxCell>
        <mxCell id="FmULgSTfwwQh52zvQRLw-2" value="SD" style="whiteSpace=wrap;html=1;aspect=fixed;" vertex="1" parent="1">
          <mxGeometry x="300" y="230" width="80" height="80" as="geometry" />
        </mxCell>
        <mxCell id="FmULgSTfwwQh52zvQRLw-4" value="SD" style="whiteSpace=wrap;html=1;aspect=fixed;" vertex="1" parent="1">
          <mxGeometry x="430" y="230" width="80" height="80" as="geometry" />
        </mxCell>
        <mxCell id="FmULgSTfwwQh52zvQRLw-5" value="SD" style="whiteSpace=wrap;html=1;aspect=fixed;" vertex="1" parent="1">
          <mxGeometry x="414" y="380" width="80" height="80" as="geometry" />
        </mxCell>
        <mxCell id="FmULgSTfwwQh52zvQRLw-6" value="SD" style="whiteSpace=wrap;html=1;aspect=fixed;" vertex="1" parent="1">
          <mxGeometry x="240" y="390" width="80" height="80" as="geometry" />
        </mxCell>
        <mxCell id="FmULgSTfwwQh52zvQRLw-14" style="edgeStyle=orthogonalEdgeStyle;rounded=0;orthogonalLoop=1;jettySize=auto;html=1;exitX=0.5;exitY=1;exitDx=0;exitDy=0;" edge="1" parent="1" source="FmULgSTfwwQh52zvQRLw-7" target="FmULgSTfwwQh52zvQRLw-13">
          <mxGeometry relative="1" as="geometry" />
        </mxCell>
        <mxCell id="FmULgSTfwwQh52zvQRLw-7" value="SD" style="whiteSpace=wrap;html=1;aspect=fixed;" vertex="1" parent="1">
          <mxGeometry x="160" y="230" width="80" height="80" as="geometry" />
        </mxCell>
        <mxCell id="FmULgSTfwwQh52zvQRLw-9" style="edgeStyle=orthogonalEdgeStyle;rounded=0;orthogonalLoop=1;jettySize=auto;html=1;exitX=0.5;exitY=1;exitDx=0;exitDy=0;entryX=0.425;entryY=-0.012;entryDx=0;entryDy=0;entryPerimeter=0;" edge="1" parent="1" source="FmULgSTfwwQh52zvQRLw-4" target="FmULgSTfwwQh52zvQRLw-5">
          <mxGeometry relative="1" as="geometry" />
        </mxCell>
        <mxCell id="FmULgSTfwwQh52zvQRLw-10" style="edgeStyle=orthogonalEdgeStyle;rounded=0;orthogonalLoop=1;jettySize=auto;html=1;exitX=0.5;exitY=1;exitDx=0;exitDy=0;entryX=0.425;entryY=0.013;entryDx=0;entryDy=0;entryPerimeter=0;" edge="1" parent="1" source="FmULgSTfwwQh52zvQRLw-2" target="FmULgSTfwwQh52zvQRLw-6">
          <mxGeometry relative="1" as="geometry" />
        </mxCell>
        <mxCell id="FmULgSTfwwQh52zvQRLw-13" value="SD" style="whiteSpace=wrap;html=1;aspect=fixed;" vertex="1" parent="1">
          <mxGeometry x="100" y="390" width="80" height="80" as="geometry" />
        </mxCell>
        <mxCell id="FmULgSTfwwQh52zvQRLw-15" value="Browser" style="whiteSpace=wrap;html=1;" vertex="1" parent="1">
          <mxGeometry x="510" y="80" width="120" height="60" as="geometry" />
        </mxCell>
        <mxCell id="FmULgSTfwwQh52zvQRLw-17" value="Encapsulation" style="text;html=1;align=center;verticalAlign=middle;resizable=0;points=[];autosize=1;strokeColor=none;fillColor=none;" vertex="1" parent="1">
          <mxGeometry x="520" y="255" width="100" height="30" as="geometry" />
        </mxCell>
      </root>
    </mxGraphModel>
  </diagram>
  <diagram id="m7o1QUMaCqGBL8bELGGO" name="Page-5">
    <mxGraphModel dx="671" dy="391" grid="1" gridSize="10" guides="1" tooltips="1" connect="1" arrows="1" fold="1" page="1" pageScale="1" pageWidth="827" pageHeight="1169" math="0" shadow="0">
      <root>
        <mxCell id="0" />
        <mxCell id="1" parent="0" />
        <mxCell id="AojctVU8QsWGiX1lo6bz-4" style="edgeStyle=orthogonalEdgeStyle;rounded=0;orthogonalLoop=1;jettySize=auto;html=1;exitX=1;exitY=0.25;exitDx=0;exitDy=0;" edge="1" parent="1" source="AojctVU8QsWGiX1lo6bz-1">
          <mxGeometry relative="1" as="geometry">
            <mxPoint x="550" y="175.39999999999998" as="targetPoint" />
          </mxGeometry>
        </mxCell>
        <mxCell id="AojctVU8QsWGiX1lo6bz-8" value="" style="edgeStyle=orthogonalEdgeStyle;rounded=0;orthogonalLoop=1;jettySize=auto;html=1;" edge="1" parent="1" source="AojctVU8QsWGiX1lo6bz-1" target="AojctVU8QsWGiX1lo6bz-7">
          <mxGeometry relative="1" as="geometry" />
        </mxCell>
        <mxCell id="AojctVU8QsWGiX1lo6bz-1" value="Users Comp" style="rounded=0;whiteSpace=wrap;html=1;" vertex="1" parent="1">
          <mxGeometry x="120" y="160" width="120" height="60" as="geometry" />
        </mxCell>
        <mxCell id="AojctVU8QsWGiX1lo6bz-5" style="edgeStyle=orthogonalEdgeStyle;rounded=0;orthogonalLoop=1;jettySize=auto;html=1;exitX=0;exitY=0;exitDx=0;exitDy=52.5;exitPerimeter=0;" edge="1" parent="1" source="AojctVU8QsWGiX1lo6bz-2">
          <mxGeometry relative="1" as="geometry">
            <mxPoint x="250" y="202.60000000000002" as="targetPoint" />
          </mxGeometry>
        </mxCell>
        <mxCell id="AojctVU8QsWGiX1lo6bz-11" style="edgeStyle=orthogonalEdgeStyle;rounded=0;orthogonalLoop=1;jettySize=auto;html=1;exitX=0.5;exitY=1;exitDx=0;exitDy=0;exitPerimeter=0;entryX=1;entryY=0.75;entryDx=0;entryDy=0;" edge="1" parent="1" source="AojctVU8QsWGiX1lo6bz-2" target="AojctVU8QsWGiX1lo6bz-9">
          <mxGeometry relative="1" as="geometry" />
        </mxCell>
        <mxCell id="AojctVU8QsWGiX1lo6bz-2" value="Data&lt;div&gt;Source&lt;/div&gt;" style="shape=cylinder3;whiteSpace=wrap;html=1;boundedLbl=1;backgroundOutline=1;size=15;" vertex="1" parent="1">
          <mxGeometry x="560" y="150" width="60" height="80" as="geometry" />
        </mxCell>
        <mxCell id="AojctVU8QsWGiX1lo6bz-3" value="mocks.ts" style="text;html=1;align=center;verticalAlign=middle;resizable=0;points=[];autosize=1;strokeColor=none;fillColor=none;" vertex="1" parent="1">
          <mxGeometry x="630" y="190" width="70" height="30" as="geometry" />
        </mxCell>
        <mxCell id="AojctVU8QsWGiX1lo6bz-6" value="Model 1" style="text;html=1;align=center;verticalAlign=middle;resizable=0;points=[];autosize=1;strokeColor=none;fillColor=none;" vertex="1" parent="1">
          <mxGeometry x="25" y="175" width="70" height="30" as="geometry" />
        </mxCell>
        <mxCell id="AojctVU8QsWGiX1lo6bz-7" value="UI" style="whiteSpace=wrap;html=1;rounded=0;" vertex="1" parent="1">
          <mxGeometry x="120" y="50" width="120" height="60" as="geometry" />
        </mxCell>
        <mxCell id="AojctVU8QsWGiX1lo6bz-10" style="edgeStyle=orthogonalEdgeStyle;rounded=0;orthogonalLoop=1;jettySize=auto;html=1;exitX=1;exitY=0.25;exitDx=0;exitDy=0;" edge="1" parent="1" source="AojctVU8QsWGiX1lo6bz-9">
          <mxGeometry relative="1" as="geometry">
            <mxPoint x="580" y="240" as="targetPoint" />
          </mxGeometry>
        </mxCell>
        <mxCell id="AojctVU8QsWGiX1lo6bz-9" value="Employee Comp" style="rounded=0;whiteSpace=wrap;html=1;" vertex="1" parent="1">
          <mxGeometry x="120" y="260" width="120" height="60" as="geometry" />
        </mxCell>
        <mxCell id="AojctVU8QsWGiX1lo6bz-12" value="Model 2" style="text;html=1;align=center;verticalAlign=middle;resizable=0;points=[];autosize=1;strokeColor=none;fillColor=none;" vertex="1" parent="1">
          <mxGeometry x="20" y="275" width="70" height="30" as="geometry" />
        </mxCell>
        <mxCell id="AojctVU8QsWGiX1lo6bz-14" value="Data Inconsistency" style="text;html=1;align=center;verticalAlign=middle;resizable=0;points=[];autosize=1;strokeColor=none;fillColor=none;" vertex="1" parent="1">
          <mxGeometry x="150" y="360" width="120" height="30" as="geometry" />
        </mxCell>
        <mxCell id="AojctVU8QsWGiX1lo6bz-15" value="Business Logic" style="text;html=1;align=center;verticalAlign=middle;resizable=0;points=[];autosize=1;strokeColor=none;fillColor=none;" vertex="1" parent="1">
          <mxGeometry x="150" y="388" width="100" height="30" as="geometry" />
        </mxCell>
        <mxCell id="AojctVU8QsWGiX1lo6bz-16" value="Users Comp" style="rounded=0;whiteSpace=wrap;html=1;" vertex="1" parent="1">
          <mxGeometry x="120" y="490" width="120" height="60" as="geometry" />
        </mxCell>
        <mxCell id="AojctVU8QsWGiX1lo6bz-20" style="edgeStyle=orthogonalEdgeStyle;rounded=0;orthogonalLoop=1;jettySize=auto;html=1;exitX=0;exitY=0;exitDx=0;exitDy=52.5;exitPerimeter=0;" edge="1" parent="1" source="AojctVU8QsWGiX1lo6bz-17">
          <mxGeometry relative="1" as="geometry">
            <mxPoint x="460" y="532.2" as="targetPoint" />
          </mxGeometry>
        </mxCell>
        <mxCell id="AojctVU8QsWGiX1lo6bz-17" value="Data&lt;div&gt;Source&lt;/div&gt;" style="shape=cylinder3;whiteSpace=wrap;html=1;boundedLbl=1;backgroundOutline=1;size=15;" vertex="1" parent="1">
          <mxGeometry x="560" y="480" width="60" height="80" as="geometry" />
        </mxCell>
        <mxCell id="AojctVU8QsWGiX1lo6bz-19" style="edgeStyle=orthogonalEdgeStyle;rounded=0;orthogonalLoop=1;jettySize=auto;html=1;exitX=1;exitY=0.25;exitDx=0;exitDy=0;" edge="1" parent="1" source="AojctVU8QsWGiX1lo6bz-18">
          <mxGeometry relative="1" as="geometry">
            <mxPoint x="550" y="505" as="targetPoint" />
          </mxGeometry>
        </mxCell>
        <mxCell id="AojctVU8QsWGiX1lo6bz-22" style="edgeStyle=orthogonalEdgeStyle;rounded=0;orthogonalLoop=1;jettySize=auto;html=1;exitX=0;exitY=0.75;exitDx=0;exitDy=0;entryX=1;entryY=0.75;entryDx=0;entryDy=0;" edge="1" parent="1" source="AojctVU8QsWGiX1lo6bz-18" target="AojctVU8QsWGiX1lo6bz-16">
          <mxGeometry relative="1" as="geometry" />
        </mxCell>
        <mxCell id="AojctVU8QsWGiX1lo6bz-25" style="edgeStyle=orthogonalEdgeStyle;rounded=0;orthogonalLoop=1;jettySize=auto;html=1;exitX=0.5;exitY=1;exitDx=0;exitDy=0;entryX=1;entryY=0.75;entryDx=0;entryDy=0;" edge="1" parent="1" source="AojctVU8QsWGiX1lo6bz-18" target="AojctVU8QsWGiX1lo6bz-23">
          <mxGeometry relative="1" as="geometry" />
        </mxCell>
        <mxCell id="AojctVU8QsWGiX1lo6bz-18" value="Service Layer&lt;div&gt;(Singleton)&lt;/div&gt;" style="rounded=0;whiteSpace=wrap;html=1;" vertex="1" parent="1">
          <mxGeometry x="330" y="490" width="120" height="60" as="geometry" />
        </mxCell>
        <mxCell id="AojctVU8QsWGiX1lo6bz-21" style="edgeStyle=orthogonalEdgeStyle;rounded=0;orthogonalLoop=1;jettySize=auto;html=1;exitX=1;exitY=0.25;exitDx=0;exitDy=0;" edge="1" parent="1" source="AojctVU8QsWGiX1lo6bz-16">
          <mxGeometry relative="1" as="geometry">
            <mxPoint x="320" y="505" as="targetPoint" />
          </mxGeometry>
        </mxCell>
        <mxCell id="AojctVU8QsWGiX1lo6bz-24" style="edgeStyle=orthogonalEdgeStyle;rounded=0;orthogonalLoop=1;jettySize=auto;html=1;exitX=1;exitY=0.25;exitDx=0;exitDy=0;entryX=0.25;entryY=1;entryDx=0;entryDy=0;" edge="1" parent="1" source="AojctVU8QsWGiX1lo6bz-23" target="AojctVU8QsWGiX1lo6bz-18">
          <mxGeometry relative="1" as="geometry" />
        </mxCell>
        <mxCell id="AojctVU8QsWGiX1lo6bz-23" value="Employee Comp" style="rounded=0;whiteSpace=wrap;html=1;" vertex="1" parent="1">
          <mxGeometry x="120" y="585" width="120" height="60" as="geometry" />
        </mxCell>
        <mxCell id="AojctVU8QsWGiX1lo6bz-26" value="Tight Coupling" style="text;html=1;align=center;verticalAlign=middle;resizable=0;points=[];autosize=1;strokeColor=none;fillColor=none;" vertex="1" parent="1">
          <mxGeometry x="150" y="418" width="100" height="30" as="geometry" />
        </mxCell>
        <mxCell id="AojctVU8QsWGiX1lo6bz-27" value="Two Principles&lt;div&gt;1. Dependency Injection Principle&lt;/div&gt;&lt;div&gt;2. Single Responsibility Principle&lt;/div&gt;" style="text;html=1;align=center;verticalAlign=middle;resizable=0;points=[];autosize=1;strokeColor=none;fillColor=none;" vertex="1" parent="1">
          <mxGeometry x="240" y="660" width="200" height="60" as="geometry" />
        </mxCell>
      </root>
    </mxGraphModel>
  </diagram>
  <diagram id="x7OTwud91OWmwHnBY23Y" name="Page-6">
    <mxGraphModel dx="839" dy="489" grid="1" gridSize="10" guides="1" tooltips="1" connect="1" arrows="1" fold="1" page="1" pageScale="1" pageWidth="827" pageHeight="1169" math="0" shadow="0">
      <root>
        <mxCell id="0" />
        <mxCell id="1" parent="0" />
        <mxCell id="KrtJLZtvskNEUEvb-XLX-3" value="" style="edgeStyle=orthogonalEdgeStyle;rounded=0;orthogonalLoop=1;jettySize=auto;html=1;" edge="1" parent="1" source="KrtJLZtvskNEUEvb-XLX-1" target="KrtJLZtvskNEUEvb-XLX-2">
          <mxGeometry relative="1" as="geometry" />
        </mxCell>
        <mxCell id="KrtJLZtvskNEUEvb-XLX-1" value="Root Module" style="rounded=0;whiteSpace=wrap;html=1;" vertex="1" parent="1">
          <mxGeometry x="353" y="190" width="120" height="60" as="geometry" />
        </mxCell>
        <mxCell id="KrtJLZtvskNEUEvb-XLX-5" value="" style="edgeStyle=orthogonalEdgeStyle;rounded=0;orthogonalLoop=1;jettySize=auto;html=1;" edge="1" parent="1" source="KrtJLZtvskNEUEvb-XLX-2" target="KrtJLZtvskNEUEvb-XLX-4">
          <mxGeometry relative="1" as="geometry" />
        </mxCell>
        <mxCell id="KrtJLZtvskNEUEvb-XLX-14" style="edgeStyle=orthogonalEdgeStyle;rounded=0;orthogonalLoop=1;jettySize=auto;html=1;exitX=0.5;exitY=1;exitDx=0;exitDy=0;entryX=0.5;entryY=0;entryDx=0;entryDy=0;" edge="1" parent="1" source="KrtJLZtvskNEUEvb-XLX-2" target="KrtJLZtvskNEUEvb-XLX-13">
          <mxGeometry relative="1" as="geometry" />
        </mxCell>
        <mxCell id="KrtJLZtvskNEUEvb-XLX-2" value="Root Component" style="rounded=0;whiteSpace=wrap;html=1;" vertex="1" parent="1">
          <mxGeometry x="353" y="290" width="120" height="60" as="geometry" />
        </mxCell>
        <mxCell id="KrtJLZtvskNEUEvb-XLX-10" style="edgeStyle=orthogonalEdgeStyle;rounded=0;orthogonalLoop=1;jettySize=auto;html=1;exitX=0.5;exitY=1;exitDx=0;exitDy=0;" edge="1" parent="1" source="KrtJLZtvskNEUEvb-XLX-4" target="KrtJLZtvskNEUEvb-XLX-6">
          <mxGeometry relative="1" as="geometry" />
        </mxCell>
        <mxCell id="KrtJLZtvskNEUEvb-XLX-11" style="edgeStyle=orthogonalEdgeStyle;rounded=0;orthogonalLoop=1;jettySize=auto;html=1;exitX=0.5;exitY=1;exitDx=0;exitDy=0;entryX=0.5;entryY=0;entryDx=0;entryDy=0;" edge="1" parent="1" source="KrtJLZtvskNEUEvb-XLX-4" target="KrtJLZtvskNEUEvb-XLX-8">
          <mxGeometry relative="1" as="geometry" />
        </mxCell>
        <mxCell id="KrtJLZtvskNEUEvb-XLX-4" value="Users Component" style="rounded=0;whiteSpace=wrap;html=1;" vertex="1" parent="1">
          <mxGeometry x="353" y="390" width="120" height="60" as="geometry" />
        </mxCell>
        <mxCell id="KrtJLZtvskNEUEvb-XLX-6" value="UserImage Component" style="rounded=0;whiteSpace=wrap;html=1;" vertex="1" parent="1">
          <mxGeometry x="279" y="510" width="120" height="60" as="geometry" />
        </mxCell>
        <mxCell id="KrtJLZtvskNEUEvb-XLX-8" value="UserInfo&amp;nbsp;&lt;div&gt;Component&lt;/div&gt;" style="rounded=0;whiteSpace=wrap;html=1;" vertex="1" parent="1">
          <mxGeometry x="429" y="510" width="120" height="60" as="geometry" />
        </mxCell>
        <mxCell id="KrtJLZtvskNEUEvb-XLX-12" value="Login Component" style="rounded=0;whiteSpace=wrap;html=1;" vertex="1" parent="1">
          <mxGeometry x="499" y="390" width="120" height="60" as="geometry" />
        </mxCell>
        <mxCell id="KrtJLZtvskNEUEvb-XLX-13" value="Registration Component" style="rounded=0;whiteSpace=wrap;html=1;" vertex="1" parent="1">
          <mxGeometry x="199" y="390" width="120" height="60" as="geometry" />
        </mxCell>
        <mxCell id="KrtJLZtvskNEUEvb-XLX-15" style="edgeStyle=orthogonalEdgeStyle;rounded=0;orthogonalLoop=1;jettySize=auto;html=1;exitX=0.5;exitY=1;exitDx=0;exitDy=0;entryX=0.558;entryY=-0.017;entryDx=0;entryDy=0;entryPerimeter=0;" edge="1" parent="1" source="KrtJLZtvskNEUEvb-XLX-2" target="KrtJLZtvskNEUEvb-XLX-12">
          <mxGeometry relative="1" as="geometry" />
        </mxCell>
        <mxCell id="KrtJLZtvskNEUEvb-XLX-17" style="edgeStyle=orthogonalEdgeStyle;rounded=0;orthogonalLoop=1;jettySize=auto;html=1;exitX=0.5;exitY=0;exitDx=0;exitDy=0;entryX=0.5;entryY=0;entryDx=0;entryDy=0;" edge="1" parent="1" source="KrtJLZtvskNEUEvb-XLX-16" target="KrtJLZtvskNEUEvb-XLX-1">
          <mxGeometry relative="1" as="geometry" />
        </mxCell>
        <mxCell id="KrtJLZtvskNEUEvb-XLX-16" value="Data Service" style="ellipse;whiteSpace=wrap;html=1;aspect=fixed;fillColor=#dae8fc;strokeColor=#6c8ebf;" vertex="1" parent="1">
          <mxGeometry x="99" y="210" width="80" height="80" as="geometry" />
        </mxCell>
        <mxCell id="KrtJLZtvskNEUEvb-XLX-18" value="DS1" style="ellipse;whiteSpace=wrap;html=1;aspect=fixed;fillColor=#dae8fc;strokeColor=#6c8ebf;" vertex="1" parent="1">
          <mxGeometry x="329" y="270" width="40" height="40" as="geometry" />
        </mxCell>
        <mxCell id="KrtJLZtvskNEUEvb-XLX-19" value="DS1" style="ellipse;whiteSpace=wrap;html=1;aspect=fixed;fillColor=#dae8fc;strokeColor=#6c8ebf;" vertex="1" parent="1">
          <mxGeometry x="269" y="550" width="40" height="40" as="geometry" />
        </mxCell>
        <mxCell id="KrtJLZtvskNEUEvb-XLX-20" value="DS1" style="ellipse;whiteSpace=wrap;html=1;aspect=fixed;fillColor=#dae8fc;strokeColor=#6c8ebf;" vertex="1" parent="1">
          <mxGeometry x="499" y="430" width="40" height="40" as="geometry" />
        </mxCell>
        <mxCell id="KrtJLZtvskNEUEvb-XLX-21" value="DS1" style="ellipse;whiteSpace=wrap;html=1;aspect=fixed;fillColor=#dae8fc;strokeColor=#6c8ebf;" vertex="1" parent="1">
          <mxGeometry x="349" y="430" width="40" height="40" as="geometry" />
        </mxCell>
        <mxCell id="KrtJLZtvskNEUEvb-XLX-22" value="DS1" style="ellipse;whiteSpace=wrap;html=1;aspect=fixed;fillColor=#dae8fc;strokeColor=#6c8ebf;" vertex="1" parent="1">
          <mxGeometry x="199" y="430" width="40" height="40" as="geometry" />
        </mxCell>
        <mxCell id="KrtJLZtvskNEUEvb-XLX-23" value="DS1" style="ellipse;whiteSpace=wrap;html=1;aspect=fixed;fillColor=#dae8fc;strokeColor=#6c8ebf;" vertex="1" parent="1">
          <mxGeometry x="419" y="550" width="40" height="40" as="geometry" />
        </mxCell>
        <mxCell id="KrtJLZtvskNEUEvb-XLX-25" style="edgeStyle=orthogonalEdgeStyle;rounded=0;orthogonalLoop=1;jettySize=auto;html=1;exitX=0;exitY=0.5;exitDx=0;exitDy=0;entryX=1;entryY=0.5;entryDx=0;entryDy=0;" edge="1" parent="1" source="KrtJLZtvskNEUEvb-XLX-24" target="KrtJLZtvskNEUEvb-XLX-2">
          <mxGeometry relative="1" as="geometry" />
        </mxCell>
        <mxCell id="KrtJLZtvskNEUEvb-XLX-24" value="Auth Service" style="ellipse;whiteSpace=wrap;html=1;aspect=fixed;fillColor=#d5e8d4;strokeColor=#82b366;" vertex="1" parent="1">
          <mxGeometry x="619" y="210" width="80" height="80" as="geometry" />
        </mxCell>
        <mxCell id="KrtJLZtvskNEUEvb-XLX-26" value="AS1" style="ellipse;whiteSpace=wrap;html=1;aspect=fixed;fillColor=#d5e8d4;strokeColor=#82b366;" vertex="1" parent="1">
          <mxGeometry x="439" y="265" width="50" height="50" as="geometry" />
        </mxCell>
        <mxCell id="KrtJLZtvskNEUEvb-XLX-27" value="AS1" style="ellipse;whiteSpace=wrap;html=1;aspect=fixed;fillColor=#d5e8d4;strokeColor=#82b366;" vertex="1" parent="1">
          <mxGeometry x="363" y="550" width="50" height="50" as="geometry" />
        </mxCell>
        <mxCell id="KrtJLZtvskNEUEvb-XLX-28" value="AS1" style="ellipse;whiteSpace=wrap;html=1;aspect=fixed;fillColor=#d5e8d4;strokeColor=#82b366;" vertex="1" parent="1">
          <mxGeometry x="579" y="425" width="50" height="50" as="geometry" />
        </mxCell>
        <mxCell id="KrtJLZtvskNEUEvb-XLX-29" value="AS1" style="ellipse;whiteSpace=wrap;html=1;aspect=fixed;fillColor=#d5e8d4;strokeColor=#82b366;" vertex="1" parent="1">
          <mxGeometry x="429" y="430" width="50" height="50" as="geometry" />
        </mxCell>
        <mxCell id="KrtJLZtvskNEUEvb-XLX-30" value="AS1" style="ellipse;whiteSpace=wrap;html=1;aspect=fixed;fillColor=#d5e8d4;strokeColor=#82b366;" vertex="1" parent="1">
          <mxGeometry x="279" y="430" width="50" height="50" as="geometry" />
        </mxCell>
        <mxCell id="KrtJLZtvskNEUEvb-XLX-31" value="AS1" style="ellipse;whiteSpace=wrap;html=1;aspect=fixed;fillColor=#d5e8d4;strokeColor=#82b366;" vertex="1" parent="1">
          <mxGeometry x="529" y="545" width="45" height="45" as="geometry" />
        </mxCell>
        <mxCell id="KrtJLZtvskNEUEvb-XLX-33" value="DS1" style="ellipse;whiteSpace=wrap;html=1;aspect=fixed;fillColor=#dae8fc;strokeColor=#6c8ebf;" vertex="1" parent="1">
          <mxGeometry x="629" y="270" width="40" height="40" as="geometry" />
        </mxCell>
        <mxCell id="KrtJLZtvskNEUEvb-XLX-34" value="AS1" style="ellipse;whiteSpace=wrap;html=1;aspect=fixed;fillColor=#a20025;strokeColor=#6F0000;fontColor=#ffffff;" vertex="1" parent="1">
          <mxGeometry x="129" y="265" width="50" height="50" as="geometry" />
        </mxCell>
        <mxCell id="KrtJLZtvskNEUEvb-XLX-35" value="AuthService Singleton instance&amp;nbsp;&lt;div&gt;not available with DataService&lt;/div&gt;" style="text;html=1;align=center;verticalAlign=middle;resizable=0;points=[];autosize=1;strokeColor=none;fillColor=none;" vertex="1" parent="1">
          <mxGeometry x="49" y="320" width="190" height="40" as="geometry" />
        </mxCell>
        <mxCell id="KrtJLZtvskNEUEvb-XLX-39" style="edgeStyle=orthogonalEdgeStyle;rounded=0;orthogonalLoop=1;jettySize=auto;html=1;exitX=0;exitY=0.5;exitDx=0;exitDy=0;entryX=0.75;entryY=0;entryDx=0;entryDy=0;" edge="1" parent="1" source="KrtJLZtvskNEUEvb-XLX-36" target="KrtJLZtvskNEUEvb-XLX-4">
          <mxGeometry relative="1" as="geometry">
            <Array as="points">
              <mxPoint x="699" y="360" />
              <mxPoint x="443" y="360" />
            </Array>
          </mxGeometry>
        </mxCell>
        <mxCell id="KrtJLZtvskNEUEvb-XLX-36" value="Counter Service" style="ellipse;whiteSpace=wrap;html=1;aspect=fixed;fillColor=#ffe6cc;strokeColor=#d79b00;" vertex="1" parent="1">
          <mxGeometry x="699" y="330" width="80" height="80" as="geometry" />
        </mxCell>
        <mxCell id="KrtJLZtvskNEUEvb-XLX-37" value="CS1" style="ellipse;whiteSpace=wrap;html=1;aspect=fixed;fillColor=#ffe6cc;strokeColor=#d79b00;" vertex="1" parent="1">
          <mxGeometry x="473" y="560" width="40" height="40" as="geometry" />
        </mxCell>
        <mxCell id="KrtJLZtvskNEUEvb-XLX-40" value="CS1" style="ellipse;whiteSpace=wrap;html=1;aspect=fixed;fillColor=#ffe6cc;strokeColor=#d79b00;" vertex="1" parent="1">
          <mxGeometry x="313" y="555" width="40" height="40" as="geometry" />
        </mxCell>
        <mxCell id="KrtJLZtvskNEUEvb-XLX-41" value="CS1" style="ellipse;whiteSpace=wrap;html=1;aspect=fixed;fillColor=#ffe6cc;strokeColor=#d79b00;" vertex="1" parent="1">
          <mxGeometry x="389" y="430" width="40" height="40" as="geometry" />
        </mxCell>
        <mxCell id="KrtJLZtvskNEUEvb-XLX-43" value="Dependency Injection - Hierarchical Injector" style="text;strokeColor=none;fillColor=none;html=1;fontSize=24;fontStyle=1;verticalAlign=middle;align=center;" vertex="1" parent="1">
          <mxGeometry x="359" y="60" width="100" height="40" as="geometry" />
        </mxCell>
        <mxCell id="KrtJLZtvskNEUEvb-XLX-44" value="DS1" style="ellipse;whiteSpace=wrap;html=1;aspect=fixed;fillColor=#dae8fc;strokeColor=#6c8ebf;" vertex="1" parent="1">
          <mxGeometry x="690" y="385" width="40" height="40" as="geometry" />
        </mxCell>
      </root>
    </mxGraphModel>
  </diagram>
</mxfile>
